<svg width="63" height="63" viewBox="0 0 63 63" fill="none" xmlns="http://www.w3.org/2000/svg">
<path d="M29.9643 34.5734C27.808 35.5143 25.3943 35.6876 23.1257 35.0642C20.8572 34.4408 18.8709 33.0584 17.4982 31.1477C16.1673 29.2617 15.5645 26.9574 15.8014 24.6613C16.0384 22.3651 17.099 20.2325 18.7871 18.658C20.5084 17.0486 22.7279 16.0756 25.0778 15.8999C27.4277 15.7242 29.7672 16.3565 31.7087 17.692C33.6236 18.9855 35.0072 20.9269 35.605 23.1591C36.2028 25.3914 35.9746 27.7644 34.9623 29.8418M30.1035 34.576L35.4611 39.9349H38.4733V42.8093H41.4146V45.7598L42.7796 47.1261H47.25V42.8237L34.7773 30.3511" stroke="black" stroke-linecap="round" stroke-linejoin="round"/>
<path d="M22.9661 25.758C24.6246 25.758 25.9691 24.4135 25.9691 22.755C25.9691 21.0964 24.6246 19.752 22.9661 19.752C21.3076 19.752 19.9631 21.0964 19.9631 22.755C19.9631 24.4135 21.3076 25.758 22.9661 25.758Z" stroke="black" stroke-linecap="round" stroke-linejoin="round"/>
<path d="M31.5 59.7188C47.0848 59.7188 59.7188 47.0848 59.7188 31.5C59.7188 15.9152 47.0848 3.28125 31.5 3.28125C15.9152 3.28125 3.28125 15.9152 3.28125 31.5C3.28125 47.0848 15.9152 59.7188 31.5 59.7188Z" stroke="black" stroke-linecap="round" stroke-linejoin="round"/>
</svg>
