<svg width="63" height="63" viewBox="0 0 63 63" fill="none" xmlns="http://www.w3.org/2000/svg">
<path d="M31.4999 33.1798C30.5624 33.1834 29.652 33.4949 28.9087 34.0663C28.1655 34.6377 27.6304 35.4374 27.3859 36.3425C27.1414 37.2475 27.2009 38.2079 27.5552 39.0758C27.9096 39.9438 28.5393 40.6714 29.3474 41.1466V47.2498H33.7049V41.1466C34.3443 40.7684 34.8749 40.2312 35.2452 39.5873C35.6154 38.9433 35.8128 38.2145 35.818 37.4716C35.818 36.9058 35.7062 36.3456 35.4888 35.8231C35.2715 35.3007 34.953 34.8264 34.5517 34.4275C34.1504 34.0286 33.6741 33.713 33.1504 33.4989C32.6266 33.2848 32.0657 33.1763 31.4999 33.1798Z" stroke="black" stroke-linecap="round" stroke-linejoin="round"/>
<path d="M47.6304 23.3232H15.356C12.2246 23.3232 9.68604 25.8618 9.68604 28.9932V51.4239C9.68604 54.5553 12.2246 57.0939 15.356 57.0939H47.6304C50.7619 57.0939 53.3004 54.5553 53.3004 51.4239V28.9932C53.3004 25.8618 50.7619 23.3232 47.6304 23.3232Z" stroke="black" stroke-linecap="round" stroke-linejoin="round"/>
<path d="M17.522 23.3231V19.8975C17.522 16.1868 18.996 12.6281 21.6199 10.0042C24.2438 7.38032 27.8025 5.90625 31.5132 5.90625C35.2239 5.90625 38.7827 7.38032 41.4065 10.0042C44.0304 12.6281 45.5045 16.1868 45.5045 19.8975V23.3231" stroke="black" stroke-linecap="round" stroke-linejoin="round"/>
</svg>
