<svg width="63" height="63" viewBox="0 0 63 63" fill="none" xmlns="http://www.w3.org/2000/svg">
<path d="M7.87497 45.9378H55.125C55.4977 45.9378 55.8092 46.0638 56.0595 46.3158C56.3115 46.5678 56.4375 46.8801 56.4375 47.2529C56.4375 47.6256 56.3115 47.9371 56.0595 48.1874C55.8092 48.4376 55.4977 48.5628 55.125 48.5628H7.87497C7.50222 48.5628 7.19072 48.4368 6.94047 48.1848C6.68847 47.9328 6.56247 47.6213 6.56247 47.2503C6.56247 46.8793 6.68847 46.5678 6.94047 46.3158C7.19072 46.0638 7.50222 45.9378 7.87497 45.9378ZM10.5 28.4421L8.54697 31.8835C8.39122 32.1688 8.15847 32.3508 7.84872 32.4295C7.53897 32.5065 7.24322 32.4671 6.96147 32.3114C6.67797 32.1539 6.49772 31.9203 6.42072 31.6105C6.34372 31.2973 6.38572 31.0015 6.54672 30.7233L8.49972 27.2793H4.59372C4.25772 27.2793 3.98035 27.1699 3.7616 26.9511C3.54285 26.7324 3.43347 26.4559 3.43347 26.1216C3.43347 25.7874 3.54285 25.51 3.7616 25.2895C3.98035 25.069 4.25772 24.9588 4.59372 24.9588H8.49972L6.54672 21.646C6.38572 21.366 6.34372 21.0703 6.42072 20.7588C6.49772 20.4473 6.67797 20.2136 6.96147 20.0579C7.24322 19.9004 7.53897 19.861 7.84872 19.9398C8.15847 20.0185 8.39122 20.2005 8.54697 20.4858L10.5 23.7959L12.453 20.4858C12.6087 20.2005 12.8415 20.0185 13.1512 19.9398C13.461 19.8628 13.7567 19.9021 14.0385 20.0579C14.322 20.2154 14.5022 20.449 14.5792 20.7588C14.6562 21.072 14.6142 21.3678 14.4532 21.646L12.5002 24.9588H16.4062C16.7422 24.9588 17.0196 25.0681 17.2383 25.2869C17.4571 25.5056 17.5665 25.7821 17.5665 26.1164C17.5665 26.4506 17.4571 26.728 17.2383 26.9485C17.0196 27.169 16.7422 27.2793 16.4062 27.2793H12.5002L14.4532 30.7233C14.6142 31.0033 14.6562 31.299 14.5792 31.6105C14.5022 31.922 14.322 32.1556 14.0385 32.3114C13.7567 32.4689 13.461 32.5083 13.1512 32.4295C12.8415 32.3508 12.6087 32.1688 12.453 31.8835L10.5 28.4421ZM31.5 28.4421L29.547 31.8835C29.3912 32.1688 29.1585 32.3508 28.8487 32.4295C28.539 32.5065 28.2432 32.4671 27.9615 32.3114C27.678 32.1539 27.4977 31.9203 27.4207 31.6105C27.3437 31.2973 27.3857 31.0015 27.5467 30.7233L29.4997 27.2793H25.5937C25.2577 27.2793 24.9803 27.1699 24.7616 26.9511C24.5428 26.7324 24.4335 26.4559 24.4335 26.1216C24.4335 25.7874 24.5428 25.51 24.7616 25.2895C24.9803 25.069 25.2577 24.9588 25.5937 24.9588H29.4997L27.5467 21.646C27.3857 21.366 27.3437 21.0703 27.4207 20.7588C27.4977 20.4473 27.678 20.2136 27.9615 20.0579C28.2432 19.9004 28.539 19.861 28.8487 19.9398C29.1585 20.0185 29.3912 20.2005 29.547 20.4858L31.5 23.7959L33.453 20.4858C33.6087 20.2005 33.8415 20.0185 34.1512 19.9398C34.461 19.8628 34.7567 19.9021 35.0385 20.0579C35.322 20.2154 35.5022 20.449 35.5792 20.7588C35.6562 21.072 35.6142 21.3678 35.4532 21.646L33.5002 24.9588H37.4062C37.7422 24.9588 38.0196 25.0681 38.2383 25.2869C38.4571 25.5056 38.5665 25.7821 38.5665 26.1164C38.5665 26.4506 38.4571 26.728 38.2383 26.9485C38.0196 27.169 37.7422 27.2793 37.4062 27.2793H33.5002L35.4532 30.7233C35.6142 31.0033 35.6562 31.299 35.5792 31.6105C35.5022 31.922 35.322 32.1556 35.0385 32.3114C34.7567 32.4689 34.461 32.5083 34.1512 32.4295C33.8415 32.3508 33.6087 32.1688 33.453 31.8835L31.5 28.4421ZM52.5 28.4421L50.547 31.8835C50.3912 32.1688 50.1585 32.3508 49.8487 32.4295C49.539 32.5065 49.2432 32.4671 48.9615 32.3114C48.678 32.1539 48.4977 31.9203 48.4207 31.6105C48.3437 31.2973 48.3857 31.0015 48.5467 30.7233L50.4997 27.2793H46.5937C46.2577 27.2793 45.9803 27.1699 45.7616 26.9511C45.5428 26.7324 45.4335 26.4559 45.4335 26.1216C45.4335 25.7874 45.5428 25.51 45.7616 25.2895C45.9803 25.069 46.2577 24.9588 46.5937 24.9588H50.4997L48.5467 21.646C48.3857 21.366 48.3437 21.0703 48.4207 20.7588C48.4977 20.4473 48.678 20.2136 48.9615 20.0579C49.2432 19.9004 49.539 19.861 49.8487 19.9398C50.1585 20.0185 50.3912 20.2005 50.547 20.4858L52.5 23.7959L54.453 20.4858C54.6087 20.2005 54.8415 20.0185 55.1512 19.9398C55.461 19.8628 55.7567 19.9021 56.0385 20.0579C56.322 20.2154 56.5022 20.449 56.5792 20.7588C56.6562 21.072 56.6142 21.3678 56.4532 21.646L54.5002 24.9588H58.4062C58.7422 24.9588 59.0196 25.0681 59.2383 25.2869C59.4571 25.5056 59.5665 25.7821 59.5665 26.1164C59.5665 26.4506 59.4571 26.728 59.2383 26.9485C59.0196 27.169 58.7422 27.2793 58.4062 27.2793H54.5002L56.4532 30.7233C56.6142 31.0033 56.6562 31.299 56.5792 31.6105C56.5022 31.922 56.322 32.1556 56.0385 32.3114C55.7567 32.4689 55.461 32.5083 55.1512 32.4295C54.8415 32.3508 54.6087 32.1688 54.453 31.8835L52.5 28.4421Z" fill="black"/>
</svg>
